<svg width="129" height="128" viewBox="0 0 129 128" fill="none" xmlns="http://www.w3.org/2000/svg">
<path d="M10.5557 56.8671L13.2523 56.0544C13.4476 55.9977 13.4476 55.7141 13.2523 55.6574L10.5557 54.8447C10.4864 54.8258 10.436 54.7754 10.4171 54.7061L9.6044 52.0159C9.5477 51.8206 9.26419 51.8206 9.20749 52.0159L8.39475 54.7061C8.37585 54.7754 8.32544 54.8258 8.25614 54.8447L5.56592 55.6574C5.37061 55.7141 5.37061 55.9977 5.56592 56.0544L8.26244 56.8671C8.33174 56.886 8.38215 56.9364 8.40105 57.0057L9.21379 59.7022C9.27049 59.8975 9.554 59.8975 9.6107 59.7022L10.4234 57.0057C10.436 56.9364 10.4864 56.886 10.5557 56.8671Z" fill="#FF8F3C"/>
<path d="M96.5497 25.3039L99.3074 25.8758C99.5061 25.9191 99.6413 25.67 99.4967 25.527L97.5144 23.5264C97.4625 23.4768 97.4422 23.4084 97.4586 23.3385L98.0275 20.5864C98.0709 20.3876 97.8217 20.2524 97.6787 20.397L95.6811 22.3738C95.6315 22.4257 95.5631 22.446 95.4932 22.4295L92.7411 21.8607C92.5424 21.8173 92.4071 22.0665 92.5518 22.2095L94.5341 24.21C94.586 24.2597 94.6062 24.3281 94.5898 24.398L94.0179 27.1556C93.9746 27.3544 94.2238 27.4896 94.3668 27.345L96.3673 25.3626C96.4114 25.3077 96.4798 25.2875 96.5497 25.3039Z" fill="#FF8F3C"/>
<path d="M94.8551 93.5235L96.962 91.6546C97.1155 91.5212 96.9966 91.2639 96.7955 91.2944L94.0068 91.6878C93.9359 91.6997 93.869 91.6751 93.8228 91.6201L91.9566 89.519C91.8232 89.3655 91.5658 89.4845 91.5963 89.6855L91.987 92.4684C91.9989 92.5393 91.9743 92.6062 91.9193 92.6524L89.8181 94.5186C89.6646 94.652 89.7835 94.9094 89.9846 94.8789L92.7733 94.4855C92.8442 94.4736 92.9111 94.4982 92.9573 94.5532L94.8261 96.66C94.9595 96.8135 95.2169 96.6945 95.1864 96.4935L94.7931 93.7048C94.7755 93.6366 94.8001 93.5697 94.8551 93.5235Z" fill="#FCEDEF"/>
<path d="M73.3978 74.4506L75.7573 73.7395C75.9282 73.6899 75.9282 73.4418 75.7573 73.3922L73.3978 72.6811C73.3372 72.6646 73.2931 72.6205 73.2766 72.5599L72.5654 70.206C72.5158 70.0352 72.2677 70.0352 72.2181 70.206L71.507 72.5599C71.4904 72.6205 71.4463 72.6646 71.3857 72.6811L69.0317 73.3922C68.8608 73.4418 68.8608 73.6899 69.0317 73.7395L71.3912 74.4506C71.4518 74.4672 71.4959 74.5113 71.5125 74.5719L72.2236 76.9312C72.2732 77.1021 72.5213 77.1021 72.5709 76.9312L73.2821 74.5719C73.2931 74.5113 73.3372 74.4672 73.3978 74.4506Z" fill="#FCEDEF"/>
<path d="M28.1222 107.556L30.4817 106.743C30.6526 106.686 30.6526 106.403 30.4817 106.346L28.1222 105.533C28.0616 105.515 28.0175 105.464 28.0009 105.395L27.2898 102.705C27.2402 102.509 26.9921 102.509 26.9425 102.705L26.2313 105.395C26.2148 105.464 26.1707 105.515 26.11 105.533L23.7561 106.346C23.5852 106.403 23.5852 106.686 23.7561 106.743L26.1156 107.556C26.1762 107.575 26.2203 107.625 26.2368 107.694L26.948 110.391C26.9976 110.586 27.2457 110.586 27.2953 110.391L28.0064 107.694C28.0175 107.625 28.0616 107.575 28.1222 107.556Z" fill="#FCEDEF"/>
<path d="M24.2239 67.659L25.9092 67.151C26.0313 67.1156 26.0313 66.9384 25.9092 66.903L24.2239 66.3951C24.1806 66.3833 24.1491 66.3518 24.1372 66.3084L23.6293 64.6272C23.5938 64.5051 23.4166 64.5051 23.3812 64.6272L22.8732 66.3084C22.8614 66.3518 22.8299 66.3833 22.7866 66.3951L21.1052 66.903C20.9832 66.9384 20.9832 67.1156 21.1052 67.151L22.7906 67.659C22.8339 67.6708 22.8654 67.7023 22.8772 67.7456L23.3851 69.4308C23.4206 69.5528 23.5978 69.5528 23.6332 69.4308L24.1412 67.7456C24.1491 67.7023 24.1806 67.6708 24.2239 67.659Z" fill="#FCEDEF"/>
<path d="M121.326 68.7722L123.011 68.2643C123.133 68.2289 123.133 68.0517 123.011 68.0163L121.326 67.5083C121.283 67.4965 121.251 67.465 121.239 67.4217L120.731 65.7405C120.696 65.6184 120.519 65.6184 120.483 65.7405L119.975 67.4217C119.963 67.465 119.932 67.4965 119.889 67.5083L118.207 68.0163C118.085 68.0517 118.085 68.2289 118.207 68.2643L119.893 68.7722C119.936 68.7841 119.967 68.8156 119.979 68.8589L120.487 70.5441C120.523 70.6661 120.7 70.6661 120.735 70.5441L121.243 68.8589C121.251 68.8156 121.283 68.7841 121.326 68.7722Z" fill="#FF8F3C"/>
<path d="M36.6809 44.166L38.3662 43.6581C38.4883 43.6227 38.4883 43.4455 38.3662 43.4101L36.6809 42.9021C36.6376 42.8903 36.6061 42.8588 36.5943 42.8155L36.0863 41.1343C36.0509 41.0122 35.8737 41.0122 35.8382 41.1343L35.3303 42.8155C35.3185 42.8588 35.287 42.8903 35.2436 42.9021L33.5623 43.4101C33.4402 43.4455 33.4402 43.6227 33.5623 43.6581L35.2476 44.166C35.2909 44.1779 35.3224 44.2094 35.3342 44.2527L35.8422 45.9379C35.8776 46.0599 36.0548 46.0599 36.0902 45.9379L36.5982 44.2527C36.6061 44.2094 36.6376 44.1779 36.6809 44.166Z" fill="#FCEDEF"/>
<path d="M11.5825 100.76L13.2678 100.252C13.3899 100.217 13.3899 100.039 13.2678 100.004L11.5825 99.4961C11.5392 99.4843 11.5077 99.4528 11.4959 99.4095L10.9879 97.7283C10.9525 97.6062 10.7753 97.6062 10.7398 97.7283L10.2319 99.4095C10.2201 99.4528 10.1886 99.4843 10.1453 99.4961L8.46387 100.004C8.3418 100.039 8.3418 100.217 8.46387 100.252L10.1492 100.76C10.1925 100.772 10.224 100.803 10.2358 100.847L10.7438 102.532C10.7792 102.654 10.9564 102.654 10.9919 102.532L11.4998 100.847C11.5077 100.803 11.5392 100.772 11.5825 100.76Z" fill="#FF8F3C"/>
<circle opacity="0.53" cx="63.8839" cy="63.3846" r="44.3077" fill="#FFF2E6"/>
<circle opacity="0.08" cx="63.8838" cy="63.3846" r="33.8824" fill="#FF8F3C"/>
<path d="M63.8901 39.5676C60.8307 39.5666 57.8012 40.1683 54.9745 41.3386C52.1479 42.5089 49.5795 44.2247 47.4162 46.3879C45.253 48.5512 43.5372 51.1196 42.3669 53.9462C41.1967 56.7729 40.5949 59.8024 40.5959 62.8617C40.5949 65.9211 41.1967 68.9506 42.3669 71.7773C43.5372 74.6039 45.253 77.1723 47.4162 79.3356C49.5795 81.4988 52.1479 83.2146 54.9745 84.3849C57.8012 85.5551 60.8307 86.1569 63.8901 86.1559C66.9494 86.1569 69.9789 85.5551 72.8056 84.3849C75.6323 83.2146 78.2006 81.4988 80.3639 79.3356C82.5272 77.1723 84.2429 74.6039 85.4132 71.7773C86.5835 68.9506 87.1852 65.9211 87.1842 62.8617C87.1852 59.8024 86.5835 56.7729 85.4132 53.9462C84.2429 51.1196 82.5272 48.5512 80.3639 46.3879C78.2006 44.2247 75.6323 42.5089 72.8056 41.3386C69.9789 40.1683 66.9494 39.5666 63.8901 39.5676ZM63.8901 79.64C63.1935 79.6416 62.5121 79.4364 61.9322 79.0504C61.3523 78.6644 60.9001 78.115 60.6328 77.4717C60.3655 76.8285 60.2951 76.1203 60.4306 75.437C60.5661 74.7537 60.9014 74.1261 61.3939 73.6335C61.8865 73.1409 62.5142 72.8056 63.1975 72.6701C63.8808 72.5346 64.5889 72.605 65.2322 72.8723C65.8754 73.1396 66.4249 73.5919 66.8109 74.1718C67.1969 74.7516 67.4021 75.433 67.4005 76.1296C67.3983 77.06 67.0278 77.9516 66.3699 78.6095C65.7121 79.2673 64.8204 79.6379 63.8901 79.64ZM68.1498 50.6446L66.8222 68.5631C66.8139 68.687 66.7588 68.8031 66.668 68.8878C66.5773 68.9725 66.4577 69.0195 66.3335 69.0192H61.4466C61.3225 69.0195 61.2029 68.9725 61.1121 68.8878C61.0213 68.8031 60.9662 68.687 60.9579 68.5631L59.6303 50.6446C59.5944 50.063 59.6778 49.4802 59.8756 48.9322C60.0734 48.3841 60.3814 47.8824 60.7804 47.4578C61.1795 47.0333 61.6613 46.695 62.1961 46.4637C62.7309 46.2324 63.3074 46.1131 63.8901 46.1131C64.4727 46.1131 65.0492 46.2324 65.584 46.4637C66.1188 46.695 66.6006 47.0333 66.9997 47.4578C67.3988 47.8824 67.7067 48.3841 67.9045 48.9322C68.1023 49.4802 68.1858 50.063 68.1498 50.6446Z" fill="#FF8F3C"/>
</svg>
